<?xml version="1.0" encoding="UTF-8"?>
<svg version="1.1" xmlns="http://www.w3.org/2000/svg" width="32" height="32">
<path d="M0 0 C10.56 0 21.12 0 32 0 C32 10.56 32 21.12 32 32 C21.44 32 10.88 32 0 32 C0 21.44 0 10.88 0 0 Z " fill="#092846" transform="translate(0,0)"/>
<path d="M0 0 C3.63 0 7.26 0 11 0 C11 4.95 11 9.9 11 15 C7.37 15 3.74 15 0 15 C0 10.05 0 5.1 0 0 Z " fill="#176EC3" transform="translate(2,15)"/>
<path d="M0 0 C3.63 0 7.26 0 11 0 C11 4.95 11 9.9 11 15 C7.37 15 3.74 15 0 15 C0 10.05 0 5.1 0 0 Z " fill="#176EC3" transform="translate(19,2)"/>
<path d="M0 0 C1.93166016 0.01740234 1.93166016 0.01740234 3.90234375 0.03515625 C5.19269531 0.04417969 6.48304687 0.05320312 7.8125 0.0625 C8.81152344 0.07410156 9.81054688 0.08570312 10.83984375 0.09765625 C10.83984375 3.72765625 10.83984375 7.35765625 10.83984375 11.09765625 C5.88984375 11.09765625 0.93984375 11.09765625 -4.16015625 11.09765625 C-4.2578125 3.3828125 -4.2578125 3.3828125 -4.16015625 1.09765625 C-3.16015625 0.09765625 -3.16015625 0.09765625 0 0 Z " fill="#000407" transform="translate(21.16015625,20.90234375)"/>
<path d="M0 0 C4.95 0 9.9 0 15 0 C15.09765625 7.71484375 15.09765625 7.71484375 15 10 C14 11 14 11 10.83984375 11.09765625 C8.90818359 11.08025391 8.90818359 11.08025391 6.9375 11.0625 C5.64714844 11.05347656 4.35679687 11.04445313 3.02734375 11.03515625 C2.02832031 11.02355469 1.02929688 11.01195312 0 11 C0 7.37 0 3.74 0 0 Z " fill="#000407" transform="translate(0,0)"/>
<path d="M0 0 C10.83984375 -0.09765625 10.83984375 -0.09765625 14 0 C15 1 15 1 15.11352539 2.76586914 C15.10828857 3.51473389 15.10305176 4.26359863 15.09765625 5.03515625 C15.09443359 5.84404297 15.09121094 6.65292969 15.08789062 7.48632812 C15.07951172 8.33646484 15.07113281 9.18660156 15.0625 10.0625 C15.05798828 10.91650391 15.05347656 11.77050781 15.04882812 12.65039062 C15.03700373 14.76695663 15.01906769 16.88348685 15 19 C10.05 19 5.1 19 0 19 C0 12.73 0 6.46 0 0 Z M2 2 C2 6.95 2 11.9 2 17 C5.63 17 9.26 17 13 17 C13 12.05 13 7.1 13 2 C9.37 2 5.74 2 2 2 Z " fill="#000306" transform="translate(0,13)"/>
<path d="M0 0 C4.95 0 9.9 0 15 0 C15 6.27 15 12.54 15 19 C4.16015625 19.09765625 4.16015625 19.09765625 1 19 C0 18 0 18 -0.11352539 16.23413086 C-0.10828857 15.48526611 -0.10305176 14.73640137 -0.09765625 13.96484375 C-0.09443359 13.15595703 -0.09121094 12.34707031 -0.08789062 11.51367188 C-0.07951172 10.66353516 -0.07113281 9.81339844 -0.0625 8.9375 C-0.05798828 8.08349609 -0.05347656 7.22949219 -0.04882812 6.34960938 C-0.03700373 4.23304337 -0.01906769 2.11651315 0 0 Z M2 2 C2 6.95 2 11.9 2 17 C5.63 17 9.26 17 13 17 C13 12.05 13 7.1 13 2 C9.37 2 5.74 2 2 2 Z " fill="#000306" transform="translate(17,0)"/>
<path d="M0 0 C3.63 0 7.26 0 11 0 C11 2.31 11 4.62 11 7 C7.37 7 3.74 7 0 7 C0 4.69 0 2.38 0 0 Z " fill="#1D86DA" transform="translate(19,23)"/>
<path d="M0 0 C3.63 0 7.26 0 11 0 C11 2.31 11 4.62 11 7 C7.37 7 3.74 7 0 7 C0 4.69 0 2.38 0 0 Z " fill="#1D86DA" transform="translate(2,2)"/>
</svg>
